<?xml version="1.0" encoding="utf-8"?>
<!-- Generator: Adobe Illustrator 16.0.0, SVG Export Plug-In . SVG Version: 6.00 Build 0)  -->
<!DOCTYPE svg PUBLIC "-//W3C//DTD SVG 1.1//EN" "http://www.w3.org/Graphics/SVG/1.1/DTD/svg11.dtd">
<svg version="1.1" id="Layer_1" xmlns="http://www.w3.org/2000/svg" xmlns:xlink="http://www.w3.org/1999/xlink" x="0px" y="0px"
	 width="665px" height="665px" viewBox="0 0 665 665" enable-background="new 0 0 665 665" xml:space="preserve">
<g id="Group_1" transform="translate(-247.755 -217.091)">
	<path id="Path_1" fill="#A0B64C" stroke="#717171" d="M444.157,395.831l54.227,56.7l108.372-58.753l106.201,88.787l-26.115,25.678
		l-80.086-61.367l-55.708,35.689l79.208,79.647L468.357,690.17l82.694,53.967L825.24,482.566L641.184,348.131l-30.611-22.357
		l-1.639-1.2L444.157,395.831z"/>
	<path id="Path_2" fill="#35391E" stroke="#717171" d="M468.918,690.731l27.725,135.23l53.968,55.27V743.703L468.918,690.731z"/>
	<path id="Path_3" fill="#697039" stroke="#717171" d="M550.611,881.231l252.867-291.164L825.24,483L550.611,743.268V881.231z"/>
	<path id="Path_4" fill="#35391E" stroke="#717171" d="M550.611,483v108.949l20.45,17.066l58.8-46.631L550.611,483z"/>
	<path id="Path_5" fill="#D0D0D2" stroke="#717171" d="M504.912,368.531L653.02,227.085l-1,51.792l-43.523,45.7L504.912,368.531z"/>
	<path id="Path_6" fill="#363820" stroke="#717171" d="M606.32,394.65v50.922l79.646,62.238l26.551-24.809L606.32,394.65z"/>
	<path id="Path_7" fill="#697039" stroke="#717171" d="M499.689,452.969l106.807-58.449v51.611l-56.885,36.431v48.619
		l-49.922-48.792V452.969z"/>
	<path id="Path_8" fill="#34381E" stroke="#717171" d="M444.157,428.161V396.39l54.662,57.016v27.854L444.157,428.161z"/>
	<path id="Path_9" fill="#FFFFFF" stroke="#717171" d="M477.493,591.373l72.859-58.581l-107.242-104.2v-33.508l60.062-25.243
		l149.719-143.189l-72.683-8.7L336.043,442.959L477.493,591.373z"/>
	<path id="Path_10" fill="#D0CFD3" stroke="#717171" d="M549.917,533.898l-72.111,57.3l13.259,80.141l60.324-47.064L549.917,533.898
		z"/>
	<path id="Path_11" fill="#B2AFAF" stroke="#717171" d="M354.329,532.181l-19.06-89.321l142.537,148.752l12.845,80.314l-9.116,7.873
		L354.329,532.181z"/>
</g>
</svg>
